<svg id="Camada_1" data-name="Camada 1" xmlns="http://www.w3.org/2000/svg" viewBox="0 0 72.31 72.11"><defs><style>.cls-1{fill:#c63a6e;}.cls-2{fill:#69c3c8;}.cls-3{fill:#225685;}</style></defs><title>Prancheta 33</title><path class="cls-1" d="M41.44.67V10a.66.66,0,0,0,.51.64,25.43,25.43,0,0,1,19.25,25c0,12-8.3,22.83-19.77,25.42a24,24,0,0,1-10.6,0C19.39,58.45,11.1,47.65,11.1,35.64a25.41,25.41,0,0,1,19.23-25,.66.66,0,0,0,.51-.64V.67A.67.67,0,0,0,30.06,0,36.39,36.39,0,0,0,0,35.64,37,37,0,0,0,30.84,71.7c.84.13,1.7.24,2.56.3l.87.06c.62,0,1.24,0,1.87,0s1.25,0,1.87,0l.87-.06c.87-.07,1.72-.17,2.57-.3A37,37,0,0,0,72.31,35.64,36.38,36.38,0,0,0,42.22,0,.67.67,0,0,0,41.44.67Z"/><path class="cls-2" d="M51.57,35.8A15.42,15.42,0,0,1,41.44,50.29c-.46.17-.94.32-1.43.44a15.84,15.84,0,0,1-3.87.48,15.3,15.3,0,0,1-4.57-.69l-.73-.24a15.43,15.43,0,0,1,0-29l.73-.24a15.25,15.25,0,0,1,4.56-.69h0a15.73,15.73,0,0,1,3.86.48c.49.12,1,.28,1.43.44A15.42,15.42,0,0,1,51.57,35.8Z"/><circle class="cls-3" cx="36.14" cy="35.8" r="8.57"/></svg>